<?xml version="1.0" encoding="UTF-8"?>
<svg id="katman_2" data-name="katman 2" xmlns="http://www.w3.org/2000/svg" xmlns:xlink="http://www.w3.org/1999/xlink" viewBox="0 0 236.21 167.09">
  <defs>
    <style>
      .cls-1 {
        fill: none;
      }

      .cls-1, .cls-2 {
        stroke-width: 0px;
      }

      .cls-3 {
        clip-path: url(#clippath-1);
      }

      .cls-2 {
        fill: #fff;
      }

      .cls-4 {
        clip-path: url(#clippath);
      }
    </style>
    <clipPath id="clippath">
      <rect class="cls-1" width="236.21" height="167.09"/>
    </clipPath>
    <clipPath id="clippath-1">
      <rect class="cls-1" width="236.21" height="167.09"/>
    </clipPath>
  </defs>
  <g id="katman_1" data-name="katman 1">
    <g>
      <polygon class="cls-2" points="43.6 136.71 43.6 167.09 38.03 167.09 38.03 154.68 18.12 154.68 18.12 167.09 12.55 167.09 12.55 136.71 18.12 136.71 18.12 149.11 38.03 149.11 38.03 136.71 43.6 136.71 43.6 136.71"/>
      <polygon class="cls-2" points="48.77 136.71 54.34 136.71 54.34 167.09 48.77 167.09 48.77 136.71 48.77 136.71"/>
      <polygon class="cls-2" points="88.44 136.71 88.44 142.28 76.08 142.28 76.08 167.09 70.47 167.09 70.47 142.28 58.06 142.28 58.06 136.71 88.44 136.71 88.44 136.71"/>
      <path class="cls-2" d="M117.54,151.31v-8.73c0-.17-.13-.3-.29-.3h-18.61c-.17,0-.3.13-.3.3v8.73h19.2ZM117.24,136.71c3.25,0,5.91,2.62,5.91,5.86v24.51h-5.61v-10.21h-19.2v10.21h-5.57v-24.51c0-3.25,2.62-5.86,5.86-5.86h18.61Z"/>
      <polygon class="cls-2" points="157.88 136.71 157.88 142.28 145.52 142.28 145.52 167.09 139.9 167.09 139.9 142.28 127.5 142.28 127.5 136.71 157.88 136.71 157.88 136.71"/>
      <polygon class="cls-2" points="190.14 142.28 167.82 142.28 167.82 149.11 185.79 149.11 185.79 154.68 167.82 154.68 167.82 161.52 190.14 161.52 190.14 167.09 162.21 167.09 162.21 136.71 190.14 136.71 190.14 142.28 190.14 142.28"/>
      <g class="cls-4">
        <path class="cls-2" d="M224.27,136.71v1.48l-11.48,13.71,11.48,13.71v1.48h-6.12l-10.38-12.4h-7.17v12.4h-5.61v-30.38h5.61v12.4h7.17c3.37-4.05,7.04-8.35,10.38-12.4h6.12Z"/>
        <path class="cls-2" d="M165.22,23.24h0s0,0,0,0h0ZM188.08,35.89h30.95c5.37-1.03,8.12-3.86,9.88-6.94h0c1.12-2,1.71-4.12,2-5.71h-65.69v-5h68.48c.67,0,1.3.27,1.77.74h0c.47.47.73,1.11.73,1.78h0c-.01.2-.02,4.26-2.06,8.88h0c-1.98,4.59-6.38,9.84-14.45,11.22h0l-.43.04h-31.18s0-5,0-5h0Z"/>
      </g>
      <path class="cls-2" d="M182.09,59.04v-5h22.98c6.04-1.04,8.76-4.15,10.41-7.43h0c1.61-3.31,1.75-6.8,1.74-7.51h0c0-.11,0-.14,0-.14h0l5-.13s0,.12,0,.28h0c0,1.14-.12,5.28-2.24,9.69h0c-2.07,4.4-6.53,9.06-14.32,10.22h0l-.38.03h-23.18Z"/>
      <path class="cls-2" d="M177.09,72.04h17.04c5.96-.74,8.62-3.59,10.28-6.76h0c1.62-3.19,1.82-6.78,1.81-7.91h0c0-.27,0-.36,0-.36h0l4.99-.25s0,.25.01.61h0c-.01,1.56-.18,5.81-2.35,10.15h0c-2.11,4.34-6.66,8.72-14.34,9.49h0l-.27.02h-17.18s0-5,0-5h0Z"/>
      <path class="cls-2" d="M179.44,38.54c0,1.75,1.42,3.16,3.17,3.16h0c1.75,0,3.16-1.42,3.17-3.16h0c0-1.75-1.42-3.16-3.17-3.17h0c-1.75,0-3.16,1.42-3.17,3.17h0ZM176.44,38.54c0-3.41,2.76-6.16,6.17-6.17h0c3.4,0,6.16,2.76,6.16,6.17h0c0,3.41-2.76,6.17-6.16,6.17h0c-3.41,0-6.17-2.76-6.17-6.17h0Z"/>
      <path class="cls-2" d="M174.77,55.88c0,1.74,1.42,3.16,3.17,3.16h0c1.75,0,3.16-1.42,3.17-3.16h0c0-1.75-1.42-3.16-3.17-3.17h0c-1.75,0-3.16,1.42-3.17,3.17h0ZM171.77,55.88c0-3.41,2.76-6.16,6.17-6.17h0c3.41,0,6.16,2.76,6.17,6.17h0c0,3.41-2.76,6.16-6.17,6.16h0c-3.4,0-6.17-2.76-6.17-6.16h0Z"/>
      <g class="cls-3">
        <path class="cls-2" d="M168.44,73.87c0,1.75,1.42,3.16,3.17,3.16h0c1.75,0,3.16-1.42,3.17-3.16h0c0-1.75-1.42-3.16-3.17-3.17h0c-1.75,0-3.16,1.42-3.17,3.17h0ZM165.44,73.87c0-3.41,2.76-6.16,6.17-6.17h0c3.41,0,6.16,2.76,6.17,6.17h0c0,3.41-2.76,6.16-6.17,6.16h0c-3.4,0-6.17-2.76-6.17-6.16h0Z"/>
        <path class="cls-2" d="M16.94,40.89l-.44-.04c-8.07-1.38-12.47-6.62-14.45-11.22h0C.02,25.02,0,20.96,0,20.76h0c0-.67.25-1.31.73-1.78h0c.47-.47,1.1-.74,1.77-.74h67.48v5H5.29c.23,1.24.63,2.79,1.34,4.37h0c1.64,3.56,4.42,7.1,10.55,8.28h30.95v5h-31.18Z"/>
      </g>
      <path class="cls-2" d="M30.94,59.04l-.38-.03c-7.79-1.16-12.25-5.82-14.32-10.22h0c-2.12-4.41-2.23-8.54-2.24-9.69h0c0-.19,0-.3,0-.35h0s4.99.27,4.99.27c0,0,0,0,0,.08h0c0,.71.12,4.21,1.74,7.51h0c1.65,3.28,4.37,6.39,10.41,7.43h22.98v5h-23.18Z"/>
      <path class="cls-2" d="M41.94,77.04l-.27-.02c-7.68-.78-12.22-5.15-14.34-9.49h0c-2.17-4.34-2.33-8.59-2.34-10.15h0c0-.37.01-.59.02-.64h0l4.99.31s0,.08,0,.33h0c-.01,1.13.18,4.71,1.81,7.91h0c1.67,3.17,4.32,6.01,10.29,6.75h30.52v5h-30.67Z"/>
      <path class="cls-2" d="M53.6,41.71c1.75,0,3.16-1.42,3.16-3.16h0c0-1.75-1.42-3.16-3.16-3.17h0c-1.75,0-3.16,1.42-3.17,3.17h0c0,1.75,1.42,3.16,3.17,3.16h0ZM47.44,38.54c0-3.41,2.76-6.17,6.16-6.17h0c3.4,0,6.16,2.76,6.16,6.17h0c0,3.4-2.76,6.16-6.16,6.16h0c-3.41,0-6.16-2.76-6.16-6.16h0Z"/>
      <path class="cls-2" d="M58.27,59.04c1.75,0,3.16-1.42,3.16-3.16h0c0-1.75-1.42-3.16-3.16-3.17h0c-1.75,0-3.16,1.42-3.17,3.17h0c0,1.75,1.42,3.16,3.17,3.16h0ZM52.1,55.88c0-3.41,2.76-6.17,6.17-6.17h0c3.4,0,6.16,2.76,6.16,6.17h0c0,3.4-2.76,6.16-6.16,6.16h0c-3.41,0-6.17-2.76-6.17-6.16h0Z"/>
      <path class="cls-2" d="M167.66,20.57c-.12-.93-.73-1.72-1.62-2.04-.29-.11-.58-.21-.86-.32h-2.08v9.23c.04,1.15.06,2.42.06,3.82,0,10.11-1.26,26.41-7.69,42.31-6.36,15.66-17.57,30.87-37.65,39.97-19.1-8.65-30.17-22.84-36.68-37.68-.75,1.58-2.34,2.69-4.21,2.69-.03,0-.06,0-.09,0,6.99,15.65,19.16,30.89,39.73,39.92.38.22.81.33,1.24.32h.02c.43,0,.86-.11,1.24-.33,21.92-9.62,34.29-26.3,41.03-43.01,6.79-16.79,8.06-33.67,8.06-44.18,0-6.53-.5-10.6-.51-10.68h0ZM78.67,69.55c-5.12-14.58-6.19-29.03-6.19-38.29,0-3.14.12-5.68.24-7.42.03-.48.06-.89.09-1.24,10.01-4.22,21.2-8.55,30.01-11.88,7.24-2.74,12.87-4.79,14.96-5.54,3.13,1.26,14.31,5.73,26.66,10.51v-5.36c-3.32-1.29-6.52-2.54-9.48-3.71C125.62,2.94,118.79.19,118.77.18c-.29-.12-.62-.18-.93-.18h-.03c-.28,0-.59.05-.85.15-.02,0-26.57,9.55-47.47,18.42-.82.35-1.4,1.11-1.5,2,0,.08-.51,4.16-.51,10.69,0,9.49,1.05,24.15,6.24,39.25.84-.8,1.97-1.3,3.22-1.3.61,0,1.19.13,1.73.34h0Z"/>
      <path class="cls-2" d="M76.94,77.04c1.75,0,3.16-1.42,3.16-3.17h0c0-1.75-1.42-3.16-3.16-3.17h0c-1.75,0-3.16,1.42-3.17,3.17h0c0,1.75,1.42,3.16,3.17,3.17h0ZM70.77,73.87c0-3.41,2.76-6.16,6.17-6.16h0c3.41,0,6.16,2.76,6.16,6.16h0c0,3.41-2.76,6.16-6.16,6.16h0c-3.41,0-6.16-2.76-6.17-6.16h0Z"/>
      <path class="cls-2" d="M144.94,15.37c0,1.75,1.42,3.16,3.17,3.16h0c1.75,0,3.16-1.42,3.17-3.16h0c0-1.75-1.42-3.16-3.17-3.17h0c-1.75,0-3.16,1.42-3.17,3.17h0ZM141.94,15.37c0-3.41,2.76-6.17,6.17-6.17h0c3.4,0,6.16,2.76,6.16,6.17h0c0,3.41-2.76,6.16-6.16,6.16h0c-3.41,0-6.17-2.76-6.17-6.16h0Z"/>
      <path class="cls-2" d="M133.45,28.1l2.61-4.98c-.06,0-.11-.02-.17-.02h-35.97c-.09,0-.18.01-.27.02l2.61,4.98h31.2Z"/>
      <path class="cls-2" d="M115.39,94.4h5v-27.5h-5v27.5h0ZM115.39,25.6v27.8h5v-27.8h-5Z"/>
      <path class="cls-2" d="M117.85,101.9c1.75,0,3.16-1.42,3.16-3.17h0c0-1.75-1.42-3.16-3.16-3.16h0c-1.75,0-3.16,1.42-3.17,3.16h0c0,1.75,1.42,3.16,3.17,3.17h0ZM111.69,98.74c0-3.41,2.76-6.16,6.17-6.16h0c3.41,0,6.16,2.76,6.16,6.16h0c0,3.41-2.76,6.16-6.16,6.17h0c-3.41,0-6.17-2.76-6.17-6.17h0Z"/>
      <path class="cls-2" d="M150.28,35.52c-.89,1.64-2.37,3.28-4.85,4.18,0,.27,0,.52,0,.81,0,6.27-.79,16.4-4.76,26.22-2.88,7.07-7.32,13.94-14.33,19.32v6.13c9.59-6.25,15.48-14.94,18.96-23.58,4.33-10.71,5.12-21.41,5.13-28.09,0-2.11-.08-3.81-.16-4.99h0Z"/>
      <path class="cls-2" d="M95.12,66.73c-3.98-9.82-4.77-19.94-4.76-26.22,0-.27,0-.52,0-.77-2.45-.87-3.95-2.45-4.85-4.05-.08,1.17-.15,2.81-.15,4.83,0,6.68.8,17.38,5.13,28.09,3.47,8.62,9.33,17.27,18.86,23.51v-6.15c-6.95-5.37-11.37-12.21-14.23-19.24h0Z"/>
      <polygon class="cls-2" points="91.85 62.9 91.85 57.9 146.35 57.9 146.35 62.9 91.85 62.9 91.85 62.9 91.85 62.9"/>
      <path class="cls-2" d="M89.85,37.9c1.75,0,3.16-1.42,3.16-3.16h0c0-1.75-1.42-3.16-3.16-3.17h0c-1.75,0-3.16,1.42-3.17,3.17h0c0,1.75,1.42,3.16,3.17,3.16h0ZM83.69,34.74c0-3.41,2.76-6.17,6.17-6.17h0c3.4,0,6.16,2.76,6.16,6.17h0c0,3.4-2.76,6.16-6.16,6.17h0c-3.41,0-6.16-2.76-6.17-6.17h0Z"/>
      <path class="cls-2" d="M145.98,37.9c1.75,0,3.16-1.42,3.17-3.16h0c0-1.75-1.42-3.16-3.17-3.17h0c-1.75,0-3.16,1.42-3.17,3.17h0c0,1.75,1.42,3.16,3.17,3.16h0ZM139.81,34.74c0-3.41,2.76-6.17,6.17-6.17h0c3.41,0,6.16,2.76,6.16,6.17h0c0,3.4-2.76,6.16-6.16,6.17h0c-3.41,0-6.17-2.76-6.17-6.17h0Z"/>
    </g>
  </g>
</svg>