<?xml version="1.0" encoding="UTF-8"?>
<svg id="SVGDoc" width="100" height="97" xmlns="http://www.w3.org/2000/svg" version="1.1" viewBox="0 0 100 97"><defs></defs><desc>Generated with Avocode.</desc><g><g clip-path="url(#clip-30D882AD-7EF1-4BA4-B7CD-3EEAB9374380)"><title>Fill 16</title><path d="M39.57351,63.54736c0.3436,0.20801 0.55886,0.56836 0.55886,0.96631v0.03662c0,0.85596 -0.92256,1.44971 -1.6914,1.01855c-8.72947,-4.47949 -14.44097,-13.90967 -13.26205,-24.56885c1.24677,-11.25293 10.43716,-20.35107 21.82108,-21.60107c15,-1.64062 27.7289,9.91162 27.7289,24.39209c0,9.67773 -5.6723,18.04199 -13.90973,22.03857c-0.7674,0.37256 -1.66792,-0.18506 -1.66792,-1.0293c0,-0.40918 0.22746,-0.80029 0.58638,-0.98291c5.9127,-3.37207 9.89529,-9.67676 9.89529,-16.90527c0,-11.51025 -10.089,-20.69336 -22.00827,-19.39062c-9.32088,1.01855 -16.73894,8.6416 -17.44432,17.87842c-0.58567,7.66846 3.32652,14.47412 9.39318,18.14746M61.54298,0c16.28688,4.94873 28.12523,19.92822 28.12523,37.63916c0,18.03613 -12.28178,33.23047 -29.0327,37.89111c-0.74608,0.20752 -1.48427,-0.3667 -1.48427,-1.13232c0,-0.50879 0.3376,-0.94971 0.84875,-1.10498c13.36073,-4.29297 23,-16.63037 23,-31.29297c0,-18.87061 -16.12637,-34 -35.55182,-32.71875c-16.51291,1.12598 -29.83768,14.42773 -30.81938,30.71875c-0.92472,15.40332 8.86786,28.65625 22.68851,33.19434c0.48392,0.15869 0.81506,0.59619 0.81506,1.09961v0.01514c0,0.76953 -0.74561,1.34424 -1.49362,1.12891c-17.63874,-5.07666 -30.22366,-21.86426 -28.53873,-41.27393c1.35978,-15.6665 12.21354,-28.79004 26.74869,-33.75928c-21.23321,5.70361 -36.8487,24.87842 -36.8487,47.65869c0,24.93652 18.69444,45.53467 43,48.93652v-40c1.92425,1.34473 4.30356,2.16406 6.87753,2.16406c2.57397,0 4.95327,-0.81934 6.88913,-2.16406v40c24.41319,-3.2627 43.23334,-23.92725 43.23334,-48.93652c0,-23.35156 -16.40826,-42.91602 -38.45702,-48.06348M49.87753,55.55518c-3.8047,0 -6.87753,-3.04687 -6.87753,-6.80518c0,-3.75 3.07284,-6.80469 6.87753,-6.80469c3.80492,0 6.88913,3.05469 6.88913,6.80469c0,3.7583 -3.08421,6.80518 -6.88913,6.80518" fill="#ffffff" fill-opacity="1"></path></g></g></svg>
